<svg width="24" height="24" viewBox="0 0 23 23" fill="none" xmlns="http://www.w3.org/2000/svg">
<path d="M11.5 15.375C13.0878 15.375 14.375 14.0878 14.375 12.5C14.375 10.9122 13.0878 9.625 11.5 9.625C9.91218 9.625 8.625 10.9122 8.625 12.5C8.625 14.0878 9.91218 15.375 11.5 15.375Z" fill="white"/>
<path d="M8.62502 2.91666L6.87127 4.83332H1.91669V20.1667H21.0834V4.83332H16.1288L14.375 2.91666H8.62502ZM11.5 17.2917C8.85502 17.2917 6.70835 15.145 6.70835 12.5C6.70835 9.85499 8.85502 7.70832 11.5 7.70832C14.145 7.70832 16.2917 9.85499 16.2917 12.5C16.2917 15.145 14.145 17.2917 11.5 17.2917Z" fill="white"/>
</svg>
