<svg width="24" height="23" viewBox="0 0 23 22" fill="none" xmlns="http://www.w3.org/2000/svg">
<path d="M11.3606 9.66534C10.8238 9.66534 10.3926 10.0965 10.3926 10.6333C10.3926 11.1701 10.8238 11.6013 11.3606 11.6013C11.8974 11.6013 12.3286 11.1701 12.3286 10.6333C12.3286 10.0965 11.8974 9.66534 11.3606 9.66534ZM11.3606 1.83334C6.50301 1.83334 2.56061 5.77574 2.56061 10.6333C2.56061 15.4909 6.50301 19.4333 11.3606 19.4333C16.2182 19.4333 20.1606 15.4909 20.1606 10.6333C20.1606 5.77574 16.2182 1.83334 11.3606 1.83334ZM13.2878 12.5605L6.08061 15.9133L9.43341 8.70614L16.6406 5.35334L13.2878 12.5605Z" fill="white"/>
</svg>
