<svg width="24" height="24" viewBox="0 0 24 24" fill="none" xmlns="http://www.w3.org/2000/svg">
<path d="M15.2512 6.54545C16.5064 6.54545 17.524 5.52792 17.524 4.27273C17.524 3.01753 16.5064 2 15.2512 2C13.9961 2 12.9785 3.01753 12.9785 4.27273C12.9785 5.52792 13.9961 6.54545 15.2512 6.54545Z" fill="#388FB4"/>
<path d="M21.1602 12.7193V10.657C19.5602 10.6776 17.9498 9.88357 16.9316 8.7699L15.5914 7.29531C15.4147 7.09938 15.1966 6.9447 14.9576 6.83127C14.9472 6.83127 14.9472 6.82096 14.9368 6.82096H14.9264C14.542 6.60441 14.116 6.5013 13.6277 6.56317C12.568 6.68691 11.8096 7.6356 11.8096 8.69771V16.844H19.0823V22H21.1602V14.2661H15.9654V10.7085C17.3057 11.8119 19.342 12.709 21.1602 12.7193ZM14.7498 17.8752C14.3238 19.0714 13.1706 19.9376 11.8096 19.9376C10.0849 19.9376 8.69267 18.5558 8.69267 16.844C8.69267 15.4932 9.5654 14.3589 10.7706 13.9258V11.7913C8.40176 12.2656 6.61475 14.3486 6.61475 16.844C6.61475 19.6901 8.94202 22 11.8096 22C14.3238 22 16.4225 20.2263 16.9005 17.8752H14.7498Z" fill="#388FB4"/>
<path d="M3.48975 11.0909V3.15698H6.91433C7.50318 3.15698 8.01841 3.2732 8.46005 3.50564C8.90168 3.73808 9.24517 4.06478 9.49052 4.48575C9.73587 4.90672 9.85855 5.39872 9.85855 5.96173C9.85855 6.52992 9.732 7.02191 9.4789 7.43772C9.22838 7.85352 8.87585 8.17377 8.42131 8.39846C7.96934 8.62315 7.44119 8.7355 6.83685 8.7355H4.7914V7.06194H6.40297C6.65607 7.06194 6.87172 7.01804 7.04992 6.93023C7.23071 6.83983 7.36888 6.71199 7.46444 6.5467C7.56258 6.38141 7.61165 6.18642 7.61165 5.96173C7.61165 5.73446 7.56258 5.54076 7.46444 5.38064C7.36888 5.21793 7.23071 5.09397 7.04992 5.00874C6.87172 4.92093 6.65607 4.87702 6.40297 4.87702H5.64367V11.0909H3.48975Z" fill="white"/>
<path fill-rule="evenodd" clip-rule="evenodd" d="M2.76245 11.8181V2.42969H6.91431C7.59998 2.42969 8.2354 2.56554 8.79875 2.86204C9.35792 3.15634 9.80312 3.5778 10.1188 4.11952C10.4385 4.66796 10.5858 5.2903 10.5858 5.96171C10.5858 6.64006 10.4337 7.26709 10.101 7.81439C9.77571 8.35371 9.31693 8.76676 8.74458 9.0499C8.17417 9.33338 7.53138 9.46275 6.83683 9.46275H6.37092V11.8181H2.76245ZM5.64365 8.73547H6.83683C7.44117 8.73547 7.96932 8.62313 8.42128 8.39844C8.87583 8.17375 9.22836 7.8535 9.47888 7.43769C9.73198 7.02189 9.85853 6.52989 9.85853 5.96171C9.85853 5.3987 9.73585 4.9067 9.4905 4.48573C9.24515 4.06476 8.90166 3.73806 8.46002 3.50562C8.01839 3.27318 7.50315 3.15696 6.91431 3.15696H3.48972V11.0908H5.64365V8.73547ZM5.64365 7.06192H6.40295C6.65605 7.06192 6.8717 7.01801 7.0499 6.9302C7.23068 6.83981 7.36886 6.71197 7.46441 6.54668C7.56255 6.38139 7.61162 6.1864 7.61162 5.96171C7.61162 5.73444 7.56255 5.54074 7.46441 5.38062C7.36886 5.21791 7.23068 5.09394 7.0499 5.00872C6.8717 4.92091 6.65605 4.877 6.40295 4.877H5.64365V7.06192ZM6.37092 6.33465H6.40295C6.57233 6.33465 6.67161 6.30541 6.72664 6.27871C6.78661 6.24836 6.81496 6.21698 6.83479 6.18268L6.83902 6.17536C6.85991 6.14018 6.88435 6.07805 6.88435 5.96171C6.88435 5.84029 6.85894 5.78448 6.84434 5.76066L6.84076 5.75483L6.8373 5.74892C6.82036 5.72009 6.79644 5.69327 6.73978 5.66655L6.72839 5.66119C6.67374 5.63426 6.5742 5.60427 6.40295 5.60427H6.37092V6.33465Z" fill="#388FB4"/>
</svg>
