<svg width="24" height="24" viewBox="0 0 24 24" fill="none" xmlns="http://www.w3.org/2000/svg">
<path d="M15.4731 6.37289C16.6806 6.37289 17.6595 5.39399 17.6595 4.18645C17.6595 2.97891 16.6806 2 15.4731 2C14.2655 2 13.2866 2.97891 13.2866 4.18645C13.2866 5.39399 14.2655 6.37289 15.4731 6.37289Z" fill="#388FB4"/>
<path d="M21.1578 12.3123V10.3283C19.6185 10.3481 18.0693 9.58424 17.0898 8.51284L15.8004 7.09423C15.6305 6.90574 15.4206 6.75694 15.1907 6.64781C15.1807 6.64781 15.1807 6.63789 15.1707 6.63789H15.1607C14.7909 6.42957 14.3811 6.33036 13.9113 6.38989C12.8918 6.50893 12.1621 7.4216 12.1621 8.4434V16.2805H19.1588V21.2406H21.1578V13.8004H16.1602V10.3779C17.4496 11.4393 19.4086 12.3024 21.1578 12.3123ZM14.9908 17.2725C14.581 18.4233 13.4715 19.2566 12.1621 19.2566C10.5029 19.2566 9.16359 17.9272 9.16359 16.2805C9.16359 14.9809 10.0032 13.8897 11.1626 13.473V11.4195C8.88372 11.8758 7.16455 13.8797 7.16455 16.2805C7.16455 19.0185 9.40347 21.2406 12.1621 21.2406C14.581 21.2406 16.6 19.5343 17.0598 17.2725H14.9908Z" fill="#388FB4"/>
<path d="M4.32737 22.1155L2.89624 16.3909H4.95349L5.60942 19.8793H5.65414L6.38462 16.3909H8.38223L9.14252 19.8495H9.18724L9.81336 16.3909H11.8706L10.4395 22.1155H8.21825L7.41324 19.0445H7.35361L6.5486 22.1155H4.32737Z" fill="white"/>
<path d="M15.1521 22.2198C14.531 22.2198 13.9993 22.0968 13.557 21.8508C13.1148 21.6024 12.7756 21.257 12.5396 20.8148C12.3035 20.37 12.1855 19.8545 12.1855 19.2681C12.1855 18.6817 12.3035 18.1674 12.5396 17.7252C12.7756 17.2804 13.1148 16.9351 13.557 16.6891C13.9993 16.4406 14.531 16.3164 15.1521 16.3164C15.7137 16.3164 16.1994 16.4183 16.6094 16.622C17.0218 16.8233 17.3411 17.109 17.5672 17.4792C17.7933 17.8469 17.9076 18.2792 17.91 18.7762H16.0019C15.9745 18.4755 15.8876 18.2469 15.741 18.0904C15.5969 17.9314 15.4105 17.8519 15.182 17.8519C15.0031 17.8519 14.8465 17.9041 14.7124 18.0084C14.5782 18.1103 14.4738 18.2656 14.3993 18.4743C14.3248 18.6805 14.2875 18.9401 14.2875 19.2532C14.2875 19.5663 14.3248 19.8271 14.3993 20.0358C14.4738 20.2421 14.5782 20.3974 14.7124 20.5017C14.8465 20.6036 15.0031 20.6545 15.182 20.6545C15.3335 20.6545 15.4677 20.6197 15.5845 20.5502C15.7012 20.4781 15.7957 20.3738 15.8677 20.2371C15.9422 20.098 15.987 19.929 16.0019 19.7302H17.91C17.9026 20.2346 17.7871 20.6744 17.5634 21.0496C17.3398 21.4223 17.023 21.7105 16.6131 21.9142C16.2056 22.1179 15.7186 22.2198 15.1521 22.2198Z" fill="white"/>
<path fill-rule="evenodd" clip-rule="evenodd" d="M3.78096 22.8151L2 15.6912H5.53372L5.66735 16.4019L5.81616 15.6912H8.94467L9.10052 16.4002L9.22886 15.6912H12.7666L12.5475 16.5677C12.7453 16.3794 12.9683 16.2159 13.2155 16.0783C13.7832 15.7598 14.4381 15.6167 15.152 15.6167C15.7966 15.6167 16.3927 15.7336 16.9184 15.9943C17.4421 16.2503 17.8643 16.6239 18.1636 17.1136C18.4661 17.606 18.6065 18.1676 18.6096 18.7726L18.6109 19.0305H18.62L18.6095 19.7405C18.6005 20.3483 18.4599 20.9119 18.1643 21.4077L18.1633 21.4095C17.8673 21.9028 17.4477 22.2805 16.9251 22.5403C16.3999 22.8028 15.8009 22.9194 15.152 22.9194C14.4387 22.9194 13.7843 22.7778 13.2168 22.4623L13.2142 22.4608C12.657 22.1478 12.2219 21.7057 11.9222 21.1442L11.9214 21.1427C11.7839 20.8835 11.6804 20.6092 11.6089 20.3219L10.9856 22.8151H7.67823L7.3833 21.69L7.08837 22.8151H3.78096ZM7.35348 19.0445H7.41311L8.21812 22.1154H10.4394L11.8705 16.3909H9.81323L9.18711 19.8495H9.14239L8.3821 16.3909H6.38449L5.65402 19.8793H5.60929L4.95336 16.3909H2.89611L4.32724 22.1154H6.54847L7.35348 19.0445ZM12.5395 17.7251C12.3034 18.1674 12.1854 18.6817 12.1854 19.2681C12.1854 19.8544 12.3034 20.37 12.5395 20.8147C12.7755 21.257 13.1146 21.6023 13.5569 21.8508C13.9992 22.0968 14.5309 22.2198 15.152 22.2198C15.7185 22.2198 16.2055 22.1179 16.613 21.9142C17.0229 21.7104 17.3397 21.4222 17.5633 21.0495C17.6766 20.8595 17.7621 20.653 17.8199 20.4299C17.8762 20.2124 17.9062 19.9792 17.9099 19.7302H16.0017C15.9868 19.929 15.9421 20.0979 15.8676 20.2371C15.7955 20.3737 15.7011 20.4781 15.5843 20.5501C15.4676 20.6197 15.3334 20.6545 15.1818 20.6545C15.0029 20.6545 14.8464 20.6035 14.7122 20.5017C14.5781 20.3973 14.4737 20.242 14.3992 20.0358C14.3246 19.8271 14.2874 19.5662 14.2874 19.2532C14.2874 18.9401 14.3246 18.6805 14.3992 18.4742C14.4737 18.2655 14.5781 18.1102 14.7122 18.0084C14.8464 17.904 15.0029 17.8518 15.1818 17.8518C15.4104 17.8518 15.5968 17.9314 15.7409 18.0904C15.8875 18.2469 15.9744 18.4755 16.0017 18.7761H17.9099C17.9087 18.5266 17.8792 18.2934 17.8216 18.0765C17.7645 17.8613 17.6796 17.6622 17.567 17.4792C17.3409 17.1089 17.0217 16.8232 16.6092 16.622C16.1993 16.4182 15.7135 16.3164 15.152 16.3164C14.5309 16.3164 13.9992 16.4406 13.5569 16.6891C13.1146 16.935 12.7755 17.2804 12.5395 17.7251ZM15.0576 19.7993C15.0949 19.9019 15.1291 19.9381 15.1391 19.9471C15.1429 19.9496 15.1451 19.9504 15.1468 19.9509C15.1493 19.9518 15.1595 19.9548 15.1818 19.9548C15.2038 19.9548 15.2159 19.9523 15.2205 19.9511C15.2209 19.951 15.2213 19.9509 15.2216 19.9508C15.2223 19.9501 15.223 19.9493 15.2239 19.9484C15.2283 19.9435 15.2373 19.9324 15.2487 19.9107L15.2508 19.9067C15.2689 19.873 15.2946 19.804 15.304 19.6779L15.3389 19.213L15.305 18.8395C15.2861 18.6321 15.2344 18.5731 15.2302 18.5686L15.2224 18.5603C15.2199 18.5575 15.2181 18.5557 15.2169 18.5546C15.2161 18.5544 15.215 18.5542 15.2137 18.5539C15.2086 18.5529 15.1984 18.5515 15.1818 18.5515C15.1613 18.5515 15.1527 18.5543 15.1515 18.5547C15.1505 18.5551 15.1497 18.5554 15.1488 18.5559C15.1478 18.5565 15.1455 18.5578 15.1418 18.5607L15.1354 18.5657L15.134 18.5667C15.1332 18.5675 15.1319 18.5687 15.1302 18.5706C15.1267 18.5743 15.1212 18.5809 15.1141 18.5915C15.0996 18.613 15.0793 18.6501 15.0581 18.7096L15.0572 18.7121C15.0193 18.817 14.987 18.9894 14.987 19.2532C14.987 19.5155 15.0189 19.6901 15.0576 19.7993Z" fill="#388FB4"/>
</svg>
