<svg width="24" height="24" viewBox="0 0 24 24" fill="none" xmlns="http://www.w3.org/2000/svg">
<path d="M11.9091 16.5596H11.6262L11.532 16.8263C11.1723 17.8438 10.1983 18.5798 9.05051 18.5798C7.59465 18.5798 6.4202 17.4054 6.4202 15.9495C6.4202 14.8037 7.15451 13.8371 8.17658 13.467L8.4404 13.3715V13.0909V11V10.5112L7.9613 10.6079C5.47492 11.1095 3.6 13.3113 3.6 15.9495C3.6 18.9583 6.04171 21.4 9.05051 21.4C11.6887 21.4 13.8905 19.5251 14.3921 17.0387L14.4888 16.5596H14H11.9091Z" fill="#388FB4" stroke="#388FB4" stroke-width="0.8"/>
<path d="M12 16.25H22.7418C22.6132 18.2045 20.9871 19.75 19 19.75H11.25V17C11.25 16.5858 11.5858 16.25 12 16.25Z" fill="#388FB4" stroke="#388FB4" stroke-width="0.5"/>
<path d="M11.5 5.375C12.5355 5.375 13.375 4.53553 13.375 3.5C13.375 2.46447 12.5355 1.625 11.5 1.625C10.4645 1.625 9.625 2.46447 9.625 3.5C9.625 4.53553 10.4645 5.375 11.5 5.375Z" fill="white" stroke="#388FB4" stroke-width="0.75"/>
<path d="M11.9444 14.3682H17.125V21.625H15.6528V16.6621V16.2871H15.2778H7.875V8.22827C7.875 7.30798 8.55404 6.49642 9.48657 6.39101L9.48657 6.39103L9.4901 6.39059C9.92884 6.33678 10.3061 6.42491 10.6538 6.61451L10.7377 6.66028H10.7597C10.9566 6.75717 11.1305 6.88208 11.27 7.03192L11.27 7.03192L11.2711 7.03304L12.7044 8.55968L12.7051 8.56048C13.7792 9.69776 15.43 10.5317 17.125 10.6236V12.0029C15.3776 11.8856 13.4662 11.0433 12.1782 10.0168L11.5694 9.53166V10.31V13.9932V14.3682H11.9444ZM10.5957 6.56102L10.5961 6.56134L10.5957 6.56102Z" fill="white" stroke="#388FB4" stroke-width="0.75"/>
<path d="M10.9091 17.5596H10.6262L10.532 17.8263C10.1723 18.8438 9.19835 19.5798 8.05051 19.5798C6.59465 19.5798 5.4202 18.4054 5.4202 16.9495C5.4202 15.8037 6.15451 14.8371 7.17658 14.467L7.4404 14.3715V14.0909V12V11.5112L6.9613 11.6079C4.47492 12.1095 2.6 14.3113 2.6 16.9495C2.6 19.9583 5.04171 22.4 8.05051 22.4C10.6887 22.4 12.8905 20.5251 13.3921 18.0387L13.4888 17.5596H13H10.9091Z" fill="white" stroke="#388FB4" stroke-width="0.8"/>
<path d="M16 10H19L21.7816 16.2586C22.3546 17.5478 21.4109 19 20 19V19L16 10Z" fill="#388FB4"/>
</svg>
