<svg width="24" height="24" viewBox="0 0 24 24" fill="none" xmlns="http://www.w3.org/2000/svg">
<path d="M3.53139 4C3.53139 2.89 4.44002 2 5.57325 2C6.70648 2 7.61511 2.89 7.61511 4C7.61511 5.11 6.70648 6 5.57325 6C4.44002 6 3.53139 5.11 3.53139 4ZM9.1465 10.95V7H2V15H4.04186V22H7.61511V21.89C6.34916 20.63 5.57325 18.9 5.57325 17C5.57325 14.42 7.01276 12.16 9.1465 10.95ZM15.7825 17C15.7825 18.65 14.4043 20 12.7198 20C11.0352 20 9.65697 18.65 9.65697 17C9.65697 15.89 10.2797 14.94 11.1884 14.42V12.26C9.12609 12.9 7.61511 14.77 7.61511 17C7.61511 19.76 9.90199 22 12.7198 22C15.5375 22 17.8244 19.76 17.8244 17H15.7825ZM18.8862 14H14.2511V8H12.2093V16H17.7836L20.3053 19.71L22 18.6L18.8862 14Z" fill="#388FB4"/>
</svg>
