<svg width="24" height="24" viewBox="0 0 24 24" fill="none" xmlns="http://www.w3.org/2000/svg">
<path d="M14 4.10002L8 2.00002L2 4.02002V20.22L8 17.89L14 19.99L20 17.97V1.77002L14 4.10002ZM14 17.89L8 15.78V4.11002L14 6.22002V17.89Z" fill="white"/>
<ellipse cx="16.0256" cy="21" rx="2.66667" ry="1" fill="#2E7796"/>
<path d="M16.25 20.3911C16.1159 20.2341 15.9422 20.027 15.7403 19.7782C15.2532 19.1781 14.6045 18.3382 13.9566 17.3778C13.3079 16.4164 12.6649 15.3415 12.1854 14.271C11.7034 13.1953 11.4 12.1534 11.4 11.25C11.4 8.56841 13.5684 6.4 16.25 6.4C18.9316 6.4 21.1 8.56841 21.1 11.25C21.1 12.1534 20.7966 13.1953 20.3146 14.271C19.8351 15.3415 19.1921 16.4164 18.5434 17.3778C17.8955 18.3382 17.2468 19.1781 16.7597 19.7782C16.5578 20.027 16.384 20.2341 16.25 20.3911ZM13.975 11.25C13.975 12.5059 14.9941 13.525 16.25 13.525C17.5059 13.525 18.525 12.5059 18.525 11.25C18.525 9.99409 17.5059 8.975 16.25 8.975C14.9941 8.975 13.975 9.99409 13.975 11.25Z" fill="white" stroke="#388FB4" stroke-width="0.8"/>
</svg>
