<svg width="30" height="22" viewBox="0 0 30 22" fill="none" xmlns="http://www.w3.org/2000/svg">
<path fill-rule="evenodd" clip-rule="evenodd" d="M21.3682 12.45C23.2363 13.7182 24.5454 15.4364 24.5454 17.7273V21.8182H30V17.7273C30 14.7546 25.1318 12.9955 21.3682 12.45Z" fill="white"/>
<path d="M10.9091 10.9091C13.9215 10.9091 16.3636 8.46701 16.3636 5.45455C16.3636 2.44208 13.9215 0 10.9091 0C7.89661 0 5.45453 2.44208 5.45453 5.45455C5.45453 8.46701 7.89661 10.9091 10.9091 10.9091Z" fill="white"/>
<path fill-rule="evenodd" clip-rule="evenodd" d="M19.0909 10.9091C22.1046 10.9091 24.5455 8.46818 24.5455 5.45455C24.5455 2.44091 22.1046 0 19.0909 0C18.45 0 17.85 0.136363 17.2773 0.327272C18.4091 1.73182 19.0909 3.51818 19.0909 5.45455C19.0909 7.39091 18.4091 9.17727 17.2773 10.5818C17.85 10.7727 18.45 10.9091 19.0909 10.9091Z" fill="white"/>
<path fill-rule="evenodd" clip-rule="evenodd" d="M10.9091 12.2727C7.26818 12.2727 0 14.1 0 17.7273V21.8182H21.8182V17.7273C21.8182 14.1 14.55 12.2727 10.9091 12.2727Z" fill="white"/>
</svg>
